<?xml version="1.0" encoding="utf-8"?>
<!-- Generator: Adobe Illustrator 22.0.1, SVG Export Plug-In . SVG Version: 6.00 Build 0)  -->
<svg version="1.1" xmlns="http://www.w3.org/2000/svg" xmlns:xlink="http://www.w3.org/1999/xlink" x="0px" y="0px"
	 viewBox="0 0 300 300" style="enable-background:new 0 0 300 300;" xml:space="preserve">
<style type="text/css">
	.st0{fill:#FFFFFF;}
	.st1{opacity:0.5;}
	.st2{fill:#009999;}
	.st3{fill:#E86BE8;}
	.st4{fill:#FF9750;}
</style>
<g id="Layer_1">
	<g>
		<circle cx="150" cy="150" r="149.5"/>
		<path d="M150,1c39.8,0,77.2,15.5,105.4,43.6S299,110.2,299,150s-15.5,77.2-43.6,105.4S189.8,299,150,299s-77.2-15.5-105.4-43.6
			S1,189.8,1,150S16.5,72.8,44.6,44.6S110.2,1,150,1 M150,0C67.2,0,0,67.2,0,150s67.2,150,150,150s150-67.2,150-150S232.8,0,150,0
			L150,0z"/>
	</g>
</g>
<g id="InnerCircle">
	<g>
		<circle class="st0" cx="150" cy="150" r="129.5"/>
		<g>
			<path d="M150,21c34.5,0,66.9,13.4,91.2,37.8C265.6,83.1,279,115.5,279,150s-13.4,66.9-37.8,91.2C216.9,265.6,184.5,279,150,279
				s-66.9-13.4-91.2-37.8C34.4,216.9,21,184.5,21,150s13.4-66.9,37.8-91.2S115.5,21,150,21 M150,20C78.2,20,20,78.2,20,150
				s58.2,130,130,130s130-58.2,130-130S221.8,20,150,20L150,20z"/>
		</g>
	</g>
</g>
<g id="Shadow">
</g>
<g id="Ellipse">
	<g class="st1">
		<circle class="st2" cx="108" cy="122" r="65"/>
		<path class="st2" d="M108,62c33.1,0,60,26.9,60,60s-26.9,60-60,60s-60-26.9-60-60S74.9,62,108,62 M108,52c-38.7,0-70,31.3-70,70
			s31.3,70,70,70s70-31.3,70-70S146.7,52,108,52L108,52z"/>
	</g>
	<g class="st1">
		<circle class="st3" cx="150" cy="200" r="65"/>
		<path class="st3" d="M150,140c33.1,0,60,26.9,60,60s-26.9,60-60,60s-60-26.9-60-60S116.9,140,150,140 M150,130
			c-38.7,0-70,31.3-70,70s31.3,70,70,70s70-31.3,70-70S188.7,130,150,130L150,130z"/>
	</g>
	<g class="st1">
		<circle class="st4" cx="192" cy="122" r="65"/>
		<path class="st4" d="M192,62c33.1,0,60,26.9,60,60s-26.9,60-60,60s-60-26.9-60-60S158.9,62,192,62 M192,52c-38.7,0-70,31.3-70,70
			s31.3,70,70,70s70-31.3,70-70S230.7,52,192,52L192,52z"/>
	</g>
</g>
<g id="Chat1">
</g>
</svg>
